<svg width="6497" height="1130" viewBox="0 0 6497 1130" fill="none" xmlns="http://www.w3.org/2000/svg">
<g clip-path="url(#clip0_23_10)">
<path d="M2902.27 1102.8C2872.67 1122.4 2848.67 1127.6 2805.87 1127.6C2723.07 1127.6 2667.07 1072 2667.07 983.2C2667.07 893.2 2723.07 838.8 2805.87 838.8C2847.07 838.8 2877.07 842.8 2902.27 863.2L2897.47 924.8H2892.27C2881.07 858.8 2838.27 844 2805.87 844C2764.27 844 2718.27 862.4 2718.27 983.2C2718.27 1106 2765.47 1122.4 2805.87 1122.4C2838.27 1122.4 2887.07 1102 2892.27 1040.8H2897.47L2902.27 1102.8ZM3212.95 838.8C3300.95 838.8 3342.95 906 3342.95 985.2C3342.95 1064.8 3300.95 1127.6 3212.95 1127.6C3124.95 1127.6 3082.95 1064.8 3082.95 985.2C3082.95 906 3124.95 838.8 3212.95 838.8ZM3128.55 985.2C3128.55 1095.2 3165.35 1122.4 3212.95 1122.4C3260.15 1122.4 3296.15 1095.2 3296.15 985.2C3296.15 875.6 3260.15 844 3212.95 844C3165.35 844 3128.55 875.6 3128.55 985.2ZM3726.16 1037.2V1124H3526.56V1118.8C3543.76 1118.8 3548.56 1103.6 3548.56 1076.4V881.2C3548.56 856.8 3540.56 847.2 3523.36 847.2V842.4H3618.56V847.2C3601.36 847.2 3588.96 854 3588.96 882.8V1118.8H3603.36C3646.16 1118.8 3714.16 1118.8 3720.96 1037.2H3726.16ZM4126 1037.2V1124H3926.4V1118.8C3943.6 1118.8 3948.4 1103.6 3948.4 1076.4V881.2C3948.4 856.8 3940.4 847.2 3923.2 847.2V842.4H4018.4V847.2C4001.2 847.2 3988.8 854 3988.8 882.8V1118.8H4003.2C4046 1118.8 4114 1118.8 4120.8 1037.2H4126ZM4520.65 1040.8V1124H4319.85V1118.8C4336.65 1118.8 4341.05 1104.4 4341.05 1077.2V884.8C4341.05 860 4337.45 847.6 4319.85 847.6V842.4H4515.45V914.4H4510.25C4505.85 848 4436.65 847.6 4404.25 847.6H4382.25V979.2H4408.25C4419.05 979.2 4461.85 978.8 4463.85 938.8H4469.05V1024.8H4463.85C4461.85 984.4 4418.65 984.4 4408.25 984.4H4382.25V1118.8H4400.65C4436.25 1118.8 4507.05 1120.4 4515.45 1040.8H4520.65ZM4944.46 1102.8C4914.86 1122.4 4890.86 1127.6 4848.06 1127.6C4765.26 1127.6 4709.26 1072 4709.26 983.2C4709.26 893.2 4765.26 838.8 4848.06 838.8C4889.26 838.8 4919.26 842.8 4944.46 863.2L4939.66 924.8H4934.46C4923.26 858.8 4880.46 844 4848.06 844C4806.46 844 4760.46 862.4 4760.46 983.2C4760.46 1106 4807.66 1122.4 4848.06 1122.4C4880.46 1122.4 4929.26 1102 4934.46 1040.8H4939.66L4944.46 1102.8ZM5230.45 1085.2V847.2H5206.85C5194.45 847.2 5134.85 848 5133.25 912.8H5128.05V842.4H5372.85V912.8H5367.65C5366.05 848 5299.25 847.2 5293.65 847.2H5270.05V1085.2C5270.05 1111.6 5282.45 1118.8 5299.25 1118.8V1124H5201.65V1118.8C5218.45 1118.8 5230.45 1111.6 5230.45 1085.2ZM5646.37 847.2C5629.17 847.2 5618.37 854 5618.37 878.8V1081.2C5618.37 1108.4 5629.57 1118.8 5646.37 1118.8V1124H5549.17V1118.8C5566.37 1118.8 5577.17 1108.4 5577.17 1081.2V878.8C5577.17 854 5566.77 847.2 5549.17 847.2V842.4H5646.37V847.2ZM5863.32 876.8C5852.12 848 5839.32 847.6 5825.72 847.6V842.4H5932.92V847.6C5900.12 847.6 5908.12 880 5909.32 882.8L5980.12 1073.6L6029.72 942C6042.52 904.8 6065.72 847.6 6008.12 847.6V842.4H6107.32V847.6C6080.92 847.6 6071.32 847.2 6034.92 943.2L5965.72 1124H5960.12L5863.32 876.8ZM6472.21 1040.8V1124H6271.41V1118.8C6288.21 1118.8 6292.61 1104.4 6292.61 1077.2V884.8C6292.61 860 6289.01 847.6 6271.41 847.6V842.4H6467.01V914.4H6461.81C6457.41 848 6388.21 847.6 6355.81 847.6H6333.81V979.2H6359.81C6370.61 979.2 6413.41 978.8 6415.41 938.8H6420.61V1024.8H6415.41C6413.41 984.4 6370.21 984.4 6359.81 984.4H6333.81V1118.8H6352.21C6387.81 1118.8 6458.61 1120.4 6467.01 1040.8H6472.21Z" fill="#070707"/>
<path d="M124.2 1121H-0.999999V837H119C150.2 837 173.667 844.333 189.4 859C205.4 873.4 213.4 892.067 213.4 915C213.4 929.667 209.8 942.467 202.6 953.4C195.667 964.067 186.067 972.2 173.8 977.8C187.133 982.867 197.667 990.867 205.4 1001.8C213.4 1012.73 217.4 1025.67 217.4 1040.6C217.4 1065.67 209.4 1085.4 193.4 1099.8C177.4 1113.93 154.333 1121 124.2 1121ZM122.6 1003.8H55.8V1068.6H122.6C146.6 1068.6 158.6 1057.8 158.6 1036.2C158.6 1026.33 155.533 1018.47 149.4 1012.6C143.533 1006.73 134.6 1003.8 122.6 1003.8ZM118.6 889.4H55.8V951H118.6C130.067 951 138.867 948.467 145 943.4C151.4 938.067 154.6 930.333 154.6 920.2C154.6 911.133 151.533 903.8 145.4 898.2C139.533 892.333 130.6 889.4 118.6 889.4ZM665.416 873C693.149 901 707.016 936.333 707.016 979C707.016 1021.67 693.149 1057 665.416 1085C637.682 1113 602.349 1127 559.416 1127C516.482 1127 481.149 1113 453.416 1085C425.682 1057 411.816 1021.67 411.816 979C411.816 936.333 425.682 901 453.416 873C481.149 845 516.482 831 559.416 831C602.349 831 637.682 845 665.416 873ZM621.416 1046.2C637.416 1029.13 645.416 1006.73 645.416 979C645.416 951.267 637.416 929 621.416 912.2C605.416 895.133 584.749 886.6 559.416 886.6C534.082 886.6 513.416 895.133 497.416 912.2C481.416 929 473.416 951.267 473.416 979C473.416 1006.73 481.416 1029.13 497.416 1046.2C513.416 1063 534.082 1071.4 559.416 1071.4C584.749 1071.4 605.416 1063 621.416 1046.2ZM1087.04 837V891.8H1009.04V1121H950.641V891.8H872.641V837H1087.04ZM1463.4 1067.4V1121H1279V837H1337.4V1067.4H1463.4ZM1862.15 1067.4V1121H1657.75V837H1862.15V890.6H1716.15V950.2H1856.15V1003.8H1716.15V1067.4H1862.15ZM2236.05 837H2303.65L2198.85 1021.8V1121H2140.45V1021.8L2035.65 837H2103.25L2169.25 962.2H2170.05L2236.05 837Z" fill="#070707"/>
<rect y="470" width="3278" height="168" fill="#070707"/>
<rect x="3378" width="866" height="638" fill="#070707"/>
<rect x="4344" y="247" width="2153" height="391" fill="#070707"/>
<rect x="1231" y="111" width="2047" height="259" fill="#070707"/>
</g>
<defs>
<clipPath id="clip0_23_10">
<rect width="6497" height="1130" fill="white"/>
</clipPath>
</defs>
</svg>
